Barney Miller - Season 3, Episode 11: Hash

[IMG]http://i46.photobucket.com/albums/f117/hiway99r/Decorated%20images/BarneyMillerS3-early.jpg[/IMG]

Original Air DateΓÇö30 December 1976
Everyone on the squad except Barney is stoned by hashish-laced brownies made by Wojo's new girlfriend. An actor and a critic duel with swords.
 
http://www.imdb.com/title/tt0072472/episodes?season=3

Barney Miller Season 3 - Classic TV ComedyBarney Miller s03e11 - Hash.avi 
Format : AVI 
Format/Info : Audio Video Interleave 
File size : 276 MiB 
Duration : 25mn 12s 
Overall bit rate : 1 530 Kbps 
Movie name : BARNEY_MILLER_SEASON_3_DISC_2.Title3.DVDRip 
Writing application : Lavf52.33.0 
Original source form/Name : BARNEY_MILLER_SEASON_3_DISC_2

Video 
ID : 0 
Format : MPEG-4 Visual 
Format profile : Simple@L3 
Format settings, BVOP : No 
Format settings, QPel : No 
Format settings, GMC : No warppoints 
Format settings, Matrix : Default (H.263) 
Codec ID : XVID 
Codec ID/Hint : XviD 
Duration : 25mn 12s 
Bit rate : 1 326 Kbps 
Width : 600 pixels 
Height : 456 pixels 
Display aspect ratio : 4:3 
Frame rate : 29.970 fps 
Color space : YUV 
Chroma subsampling : 4:2:0 
Bit depth : 8 bits 
Scan type : Progressive 
Compression mode : Lossy 
Bits/(Pixel*Frame) : 0.162 
Stream size : 239 MiB (87%) 
Writing library : XviD 1.2.1 (UTC 2008-12-04) 

Audio 
ID : 1 
Format : AC-3 
Format/Info : Audio Coding 3 
Mode extension : CM (complete main) 
Codec ID : 2000 
Duration : 25mn 12s 
Bit rate mode : Constant 
Bit rate : 192 Kbps 
Channel(s) : 2 channels 
Channel positions : Front: L R 
Sampling rate : 48.0 KHz 
Bit depth : 16 bits 
Compression mode : Lossy 
Stream size : 34.6 MiB (13%) 
Alignment : Aligned on interleaves 
Interleave, duration : 32 ms (0.96 video frame) 
NO SUBTITLES

[IMG]http://i46.photobucket.com/albums/f117/hiway99r/Decorated%20images/vlcsnap-2012-07-22-22h12m59s24.png[/IMG]

[IMG]http://i46.photobucket.com/albums/f117/hiway99r/Decorated%20images/vlcsnap-2012-07-22-22h13m33s120.png[/IMG]

[IMG]http://i46.photobucket.com/albums/f117/hiway99r/Decorated%20images/vlcsnap-2012-07-22-22h13m51s42.png[/IMG]